# Blender 4.0.2
# www.blender.org
mtllib tower022.mtl
o Цилиндр
v 0.000000 0.311737 -0.500000
v 0.000000 1.459980 -0.435963
v 0.250000 0.311737 -0.433013
v 0.217981 1.459980 -0.377555
v 0.433013 0.311737 -0.250000
v 0.377555 1.459980 -0.217981
v 0.500000 0.311737 0.000000
v 0.435963 1.459980 0.000000
v 0.433013 0.311737 0.250000
v 0.377555 1.459980 0.217981
v 0.250000 0.311737 0.433013
v 0.217981 1.459980 0.377555
v 0.000000 0.311737 0.500000
v 0.000000 1.459980 0.435963
v -0.250000 0.311737 0.433013
v -0.217981 1.459980 0.377555
v -0.433013 0.311737 0.250000
v -0.377555 1.459980 0.217981
v -0.500000 0.311737 0.000000
v -0.435963 1.459980 0.000000
v -0.433013 0.311737 -0.250000
v -0.377555 1.459980 -0.217981
v -0.250000 0.311737 -0.433013
v -0.217981 1.459980 -0.377555
v 0.230871 1.459980 0.396097
v 0.399360 1.459980 0.228138
v 0.181342 1.808647 0.310816
v 0.313504 1.808647 0.179070
v 0.458463 1.459980 -0.001932
v 0.359857 1.808647 -0.001371
v 0.396567 1.459980 -0.231994
v 0.311154 1.808647 -0.182400
v 0.229401 1.459980 -0.397861
v 0.180286 1.808647 -0.312250
v -0.000575 1.459980 -0.459095
v -0.000279 1.808647 -0.360328
v -0.232031 1.459980 -0.395977
v -0.182630 1.808647 -0.310601
v -0.400337 1.459980 -0.228513
v -0.314610 1.808647 -0.179281
v -0.459958 1.459980 0.000492
v -0.361283 1.808647 -0.000013
v -0.397092 1.459980 0.232210
v -0.311809 1.808647 0.182341
v -0.227458 1.459980 0.399175
v -0.178668 1.808647 0.313387
v 0.001364 1.459980 0.459247
v 0.000782 1.808647 0.360498
v 0.230871 1.808647 0.396097
v 0.399360 1.808647 0.228138
v -0.000575 1.808647 -0.459095
v -0.232031 1.808647 -0.395977
v 0.229401 1.808647 -0.397861
v 0.396567 1.808647 -0.231994
v 0.458463 1.808647 -0.001932
v 0.001364 1.808647 0.459247
v -0.227458 1.808647 0.399175
v -0.397092 1.808647 0.232210
v -0.459958 1.808647 0.000492
v -0.400337 1.808647 -0.228513
v 0.181342 1.584310 0.310816
v 0.313504 1.584310 0.179070
v -0.000279 1.584310 -0.360328
v -0.182630 1.584310 -0.310601
v 0.180286 1.584310 -0.312250
v 0.311153 1.584310 -0.182400
v 0.359857 1.584310 -0.001371
v 0.000782 1.584310 0.360498
v -0.178668 1.584310 0.313387
v -0.311809 1.584310 0.182341
v -0.361283 1.584310 -0.000013
v -0.314610 1.584310 -0.179281
v 0.271614 2.093803 -0.376180
v -0.062502 2.093803 -0.450140
v 0.362944 2.093803 0.283272
v 0.475813 2.093803 -0.058316
v -0.271922 2.093803 0.367094
v 0.060624 2.093803 0.472900
v -0.376642 2.093803 -0.259451
v -0.455066 2.093803 0.045831
v 0.222499 2.093803 -0.290569
v -0.062206 2.093803 -0.351373
v 0.277087 2.093803 0.234203
v 0.377207 2.093803 -0.057756
v -0.223132 2.093803 0.281306
v 0.060043 2.093803 0.374151
v -0.290915 2.093803 -0.210219
v -0.356391 2.093803 0.045326
v -0.178837 1.951225 0.311928
v 0.000470 1.951225 0.354609
v 0.001051 1.951225 0.453359
v -0.227626 1.951225 0.397716
v -0.187065 2.022514 0.302943
v 0.017634 2.022514 0.454949
v 0.017052 2.022514 0.356199
v -0.235855 2.022514 0.388731
v 0.000861 1.879936 0.360477
v -0.227499 1.879936 0.399125
v -0.178709 1.879936 0.313336
v 0.001443 1.879936 0.459227
v 0.461116 1.951225 -0.001670
v 0.390081 1.951225 0.235284
v 0.362511 1.951225 -0.001110
v 0.304224 1.951225 0.186216
v 0.469364 2.022514 -0.026036
v 0.370759 2.022514 -0.025475
v 0.377835 2.022514 0.250492
v 0.291979 2.022514 0.201423
v 0.399275 1.879936 0.228204
v 0.313419 1.879936 0.179135
v 0.458568 1.879936 -0.002105
v 0.359962 1.879936 -0.001544
v -0.000398 1.951225 -0.356778
v -0.000694 1.951225 -0.455545
v 0.230291 1.951225 -0.393898
v 0.181175 1.951225 -0.308287
v -0.011618 2.022514 -0.355088
v 0.236716 2.022514 -0.387792
v -0.011914 2.022514 -0.453855
v 0.187601 2.022514 -0.302182
v -0.000630 1.879936 -0.459069
v 0.180321 1.879936 -0.312201
v -0.000334 1.879936 -0.360302
v 0.229436 1.879936 -0.397812
v -0.359156 1.951225 -0.001881
v -0.457832 1.951225 -0.001376
v -0.396523 1.951225 -0.224299
v -0.310796 1.951225 -0.175067
v -0.359799 2.022514 0.010031
v -0.392150 2.022514 -0.234909
v -0.458475 2.022514 0.010536
v -0.306423 2.022514 -0.185677
v -0.459951 1.879922 0.000540
v -0.314570 1.879922 -0.179312
v -0.361275 1.879922 0.000036
v -0.400297 1.879922 -0.228544
vn -0.0000 0.0557 -0.9984
vn 0.4992 0.0557 -0.8647
vn 0.8647 0.0557 -0.4992
vn 0.9984 0.0557 -0.0000
vn 0.8647 0.0557 0.4992
vn 0.4992 0.0557 0.8647
vn -0.0000 0.0557 0.9984
vn -0.4992 0.0557 0.8647
vn -0.8647 0.0557 0.4992
vn -0.9984 0.0557 -0.0000
vn -0.8647 0.0557 -0.4992
vn -0.4992 0.0557 -0.8647
vn -0.0000 -1.0000 -0.0000
vn 0.5022 -0.0000 0.8647
vn 0.8682 -0.0000 0.4962
vn 0.9098 -0.0000 0.4151
vn 1.0000 -0.0000 -0.0057
vn 0.9966 -0.0000 0.0818
vn 0.8648 -0.0000 -0.5021
vn 0.4976 -0.0000 -0.8674
vn 0.4188 0.0002 -0.9081
vn -0.0030 -0.0000 -1.0000
vn 0.0865 0.0002 -0.9963
vn -0.5008 -0.0000 -0.8655
vn -0.8672 -0.0000 -0.4980
vn -0.9088 0.0001 -0.4173
vn -1.0000 -0.0000 0.0051
vn -0.9965 0.0001 -0.0832
vn -0.9966 -0.0000 -0.0819
vn -0.8648 -0.0000 0.5021
vn -1.0000 -0.0000 0.0057
vn -0.8632 -0.0000 0.5048
vn -0.4944 -0.0000 0.8693
vn -0.4155 0.0002 0.9096
vn 0.0059 -0.0000 1.0000
vn -0.0834 0.0002 0.9965
vn -0.0000 1.0000 -0.0000
vn -0.9279 -0.3727 0.0028
vn -0.9244 -0.3815 0.0028
vn -0.8155 -0.5788 0.0024
vn 0.0049 -0.3062 0.9519
vn 0.0049 -0.3090 0.9510
vn 0.0046 -0.4439 0.8961
vn 0.2698 -0.0486 -0.9617
vn 0.2688 -0.0492 -0.9619
vn 0.2870 -0.0387 -0.9572
vn 0.9497 0.0515 0.3088
vn 0.9497 0.0516 0.3089
vn 0.9480 0.0550 0.3135
vn 0.5008 -0.0000 0.8655
vn 0.9088 -0.0001 0.4173
vn 0.8672 -0.0000 0.4980
vn -0.0865 -0.0002 0.9963
vn 0.0030 -0.0000 1.0000
vn 0.8632 -0.0000 -0.5048
vn 0.4155 -0.0002 -0.9096
vn 0.4944 -0.0000 -0.8693
vn -0.9098 -0.0000 -0.4151
vn -0.8682 -0.0000 -0.4962
vn -0.4188 -0.0002 0.9081
vn -0.4976 -0.0000 0.8674
vn 0.9965 -0.0001 0.0832
vn 1.0000 -0.0000 -0.0051
vn 0.0834 -0.0002 -0.9965
vn -0.5022 -0.0000 -0.8647
vn -0.0059 -0.0000 -1.0000
vn 0.4797 -0.2688 -0.8353
vn 0.4796 -0.2692 -0.8352
vn 0.4613 -0.3769 -0.8032
vn 0.8310 -0.2865 0.4768
vn 0.8293 -0.2932 0.4758
vn 0.7741 -0.4513 0.4441
vn -0.2665 0.0491 0.9626
vn -0.2673 0.0485 0.9624
vn -0.2814 0.0384 0.9588
vn -0.2390 -0.1019 0.9657
vn -0.2395 -0.1007 0.9657
vn -0.2268 -0.1287 0.9654
vn 0.9612 -0.0972 0.2581
vn 0.9613 -0.0963 0.2582
vn 0.9567 -0.1459 0.2520
vn -0.0053 -0.3707 -0.9287
vn -0.0053 -0.3651 -0.9309
vn -0.0052 -0.4121 -0.9111
vn 0.2423 0.1010 -0.9649
vn 0.2419 0.1022 -0.9649
vn 0.2317 0.1291 -0.9642
vn 0.9225 -0.3860 -0.0054
vn 0.9315 -0.3637 -0.0055
vn 0.8569 -0.5155 -0.0050
vn -0.9617 0.0962 -0.2567
vn -0.9616 0.0972 -0.2566
vn -0.9568 0.1459 -0.2515
vn -0.4635 -0.3570 0.8110
vn -0.4433 -0.4493 0.7757
vn -0.9456 -0.0517 -0.3210
vn -0.9457 -0.0516 -0.3209
vn -0.9440 -0.0548 -0.3255
vn -0.8163 -0.3438 -0.4642
vn -0.8185 -0.3366 -0.4655
vn -0.7487 -0.5080 -0.4258
vn -0.8692 -0.0061 -0.4944
vn -0.8661 -0.0845 -0.4926
vn -0.8659 -0.0878 -0.4925
vn 1.0000 0.0019 -0.0059
vn 1.0000 0.0020 -0.0059
vn 0.9935 -0.1137 -0.0058
vn 0.9940 -0.1094 -0.0059
vn -0.2495 0.0246 0.9681
vn -0.2495 0.0244 0.9681
vn -0.2447 0.0570 0.9679
vn -0.2447 0.0569 0.9679
vn 0.2483 -0.0244 -0.9684
vn 0.2483 -0.0246 -0.9684
vn 0.2424 -0.0568 -0.9685
vn 0.2424 -0.0570 -0.9685
vn 1.0000 -0.0011 -0.0059
vn -0.8693 -0.0008 -0.4944
vn -0.9651 -0.0152 -0.2616
vn -0.9649 -0.0158 -0.2620
vn -0.9543 -0.0395 -0.2962
vn -0.9544 -0.0394 -0.2959
vn -0.4947 -0.0766 0.8657
vn -0.4948 -0.0737 0.8658
vn -0.4858 -0.2033 0.8501
vn -0.4854 -0.2070 0.8494
vn -0.0057 0.0020 -1.0000
vn -0.0057 0.0019 -1.0000
vn -0.0056 -0.1525 -0.9883
vn -0.0056 -0.1681 -0.9857
vn 0.9657 0.0160 0.2592
vn 0.9658 0.0154 0.2589
vn 0.9572 0.0392 0.2867
vn 0.9571 0.0393 0.2870
vn -0.0057 -0.0024 -1.0000
vn -0.4962 -0.0014 0.8682
vn 0.2574 0.0249 -0.9660
vn 0.2574 0.0247 -0.9660
vn 0.2570 0.0554 -0.9648
vn -0.2574 -0.0247 0.9660
vn -0.2574 -0.0249 0.9660
vn -0.2571 -0.0554 0.9648
vn 0.8672 -0.0195 0.4975
vn 0.8672 -0.0190 0.4975
vn 0.8648 -0.0780 0.4961
vn 0.8646 -0.0798 0.4960
vn -1.0000 -0.0009 0.0030
vn -0.9968 -0.0803 0.0030
vn -0.9970 -0.0768 0.0030
vn -1.0000 -0.0008 0.0030
vn 0.8674 -0.0008 0.4976
vn -0.9667 0.0219 -0.2551
vn -0.9667 0.0220 -0.2552
vn -0.9648 0.0355 -0.2606
vn -0.9648 0.0356 -0.2606
vn 0.9664 -0.0220 0.2561
vn 0.9664 -0.0219 0.2561
vn 0.9641 -0.0356 0.2630
vn 0.9641 -0.0356 0.2631
vn 0.4980 0.0126 -0.8671
vn 0.4980 0.0120 -0.8671
vn 0.4970 -0.0649 -0.8653
vn 0.4969 -0.0681 -0.8652
vn 0.0051 0.0129 0.9999
vn 0.0051 0.0132 0.9999
vn 0.0051 -0.0700 0.9975
vn 0.0051 -0.0687 0.9976
vn 0.0051 -0.0007 1.0000
vn 0.4980 -0.0007 -0.8672
vt 1.000000 0.500000
vt 1.000000 1.000000
vt 0.916667 1.000000
vt 0.916667 0.500000
vt 0.833333 1.000000
vt 0.833333 0.500000
vt 0.750000 1.000000
vt 0.750000 0.500000
vt 0.666667 1.000000
vt 0.666667 0.500000
vt 0.583333 1.000000
vt 0.583333 0.500000
vt 0.500000 1.000000
vt 0.500000 0.500000
vt 0.416667 1.000000
vt 0.416667 0.500000
vt 0.333333 1.000000
vt 0.333333 0.500000
vt 0.250000 1.000000
vt 0.250000 0.500000
vt 0.166667 1.000000
vt 0.166667 0.500000
vt 0.083333 1.000000
vt 0.083333 0.500000
vt 0.000000 1.000000
vt 0.000000 0.500000
vt 0.438237 0.249893
vt 0.413001 0.344505
vt 0.413347 0.155735
vt 0.344205 0.087009
vt 0.370000 0.042154
vt 0.457846 0.130000
vt 0.155473 0.412897
vt 0.250250 0.438444
vt 0.250000 0.490000
vt 0.130000 0.457846
vt 0.344446 0.412977
vt 0.457846 0.370000
vt 0.370000 0.457846
vt 0.490000 0.250000
vt 0.010000 0.250000
vt 0.061545 0.250438
vt 0.249781 0.061601
vt 0.250000 0.010000
vt 0.155896 0.086800
vt 0.086796 0.155578
vt 0.042154 0.130000
vt 0.130000 0.042154
vt 0.086537 0.344189
vt 0.042154 0.370000
vt 0.061545 0.250438
vt 0.086537 0.344189
s 1
f 1/1/1 2/2/1 4/3/2 3/4/2
f 3/4/2 4/3/2 6/5/3 5/6/3
f 5/6/3 6/5/3 8/7/4 7/8/4
f 7/8/4 8/7/4 10/9/5 9/10/5
f 9/10/5 10/9/5 12/11/6 11/12/6
f 11/12/6 12/11/6 14/13/7 13/14/7
f 13/14/7 14/13/7 16/15/8 15/16/8
f 15/16/8 16/15/8 18/17/9 17/18/9
f 17/18/9 18/17/9 20/19/10 19/20/10
f 19/20/10 20/19/10 22/21/11 21/22/11
f 21/22/11 22/21/11 24/23/12 23/24/12
f 23/24/12 24/23/12 2/25/1 1/26/1
f 6/5/13 4/3/13 33/3/13 31/5/13
f 12/11/13 10/9/13 26/9/13 25/11/13
f 25/11/14 26/9/15 50/9/16 49/11/14
f 26/9/15 29/7/17 55/7/18 50/9/16
f 10/9/13 8/7/13 29/7/13 26/9/13
f 29/7/17 31/5/19 54/5/19 55/7/18
f 8/7/13 6/5/13 31/5/13 29/7/13
f 31/5/19 33/3/20 53/3/21 54/5/19
f 33/3/20 35/2/22 51/2/23 53/3/21
f 4/3/13 2/2/13 35/2/13 33/3/13
f 35/25/22 37/23/24 52/23/24 51/25/23
f 2/25/13 24/23/13 37/23/13 35/25/13
f 37/23/24 39/21/25 60/21/26 52/23/24
f 24/23/13 22/21/13 39/21/13 37/23/13
f 39/21/25 41/19/27 59/19/28 60/21/26
f 22/21/13 20/19/13 41/19/13 39/21/13
f 30/27/29 32/28/30 66/28/30 67/27/31
f 41/19/27 43/17/32 58/17/32 59/19/28
f 20/19/13 18/17/13 43/17/13 41/19/13
f 43/17/32 45/15/33 57/15/34 58/17/32
f 18/17/13 16/15/13 45/15/13 43/17/13
f 45/15/33 47/13/35 56/13/36 57/15/34
f 16/15/13 14/13/13 47/13/13 45/15/13
f 47/13/35 25/11/14 49/11/14 56/13/36
f 14/13/13 12/11/13 25/11/13 47/13/13
f 28/29/37 27/30/37 49/31/37 50/32/37
f 38/33/37 36/34/37 51/35/37 52/36/37
f 119/35/38 117/34/39 82/34/40 74/35/40
f 34/37/37 32/28/37 54/38/37 53/39/37
f 32/28/37 30/27/37 55/40/37 54/38/37
f 131/41/41 129/42/42 88/42/43 80/41/43
f 27/30/37 48/43/37 56/44/37 49/31/37
f 95/43/44 93/45/45 85/45/46 86/43/46
f 46/45/37 44/46/37 58/47/37 57/48/37
f 44/46/37 42/42/37 59/41/37 58/47/37
f 107/9/47 105/7/48 76/7/49 75/9/49
f 40/49/37 38/33/37 52/36/37 60/50/37
f 65/37/37 63/34/37 64/33/37 72/49/37 71/42/37 70/46/37 69/45/37 68/43/37 61/30/37 62/29/37 67/27/37 66/28/37
f 38/33/50 40/49/51 72/49/52 64/33/50
f 36/34/53 38/33/50 64/33/50 63/34/54
f 44/46/55 46/45/56 69/45/57 70/46/55
f 28/29/58 30/27/29 67/27/31 62/29/59
f 34/37/60 36/34/53 63/34/54 65/37/61
f 42/42/62 44/46/55 70/46/55 71/42/63
f 48/43/64 27/30/65 61/30/65 68/43/66
f 32/28/30 34/37/60 65/37/61 66/28/30
f 40/49/51 42/42/62 71/42/63 72/49/52
f 27/30/65 28/29/58 62/29/59 61/30/65
f 46/45/56 48/43/64 68/43/66 69/45/57
f 82/34/37 81/37/37 73/39/37 74/35/37
f 84/27/37 83/29/37 75/32/37 76/40/37
f 86/43/37 85/45/37 77/48/37 78/44/37
f 88/42/37 87/49/37 79/50/37 80/41/37
f 132/49/67 130/50/68 79/50/69 87/49/69
f 120/37/70 118/39/71 73/39/72 81/37/72
f 96/15/73 94/13/74 78/13/75 77/15/75
f 117/34/76 120/37/77 81/37/78 82/34/78
f 129/42/79 132/49/80 87/49/81 88/42/81
f 105/40/82 106/27/83 84/27/84 76/40/84
f 118/3/85 119/2/86 74/2/87 73/3/87
f 94/44/88 95/43/89 86/43/90 78/44/90
f 130/21/91 131/19/92 80/19/93 79/21/93
f 108/29/94 107/32/94 75/32/95 83/29/95
f 106/27/96 108/29/97 83/29/98 84/27/98
f 93/45/99 96/48/100 77/48/101 85/45/101
f 99/45/102 98/48/102 92/48/103 89/45/104
f 100/44/105 97/43/106 90/43/107 91/44/108
f 98/15/109 100/13/110 91/13/111 92/15/112
f 97/43/113 99/45/114 89/45/115 90/43/116
f 89/45/104 92/48/103 96/48/100 93/45/99
f 91/44/108 90/43/107 95/43/89 94/44/88
f 92/15/112 91/13/111 94/13/74 96/15/73
f 90/43/116 89/45/115 93/45/45 95/43/44
f 48/43/64 46/45/56 99/45/114 97/43/113
f 57/15/34 56/13/36 100/13/110 98/15/109
f 56/44/117 48/43/117 97/43/106 100/44/105
f 46/45/118 57/48/118 98/48/102 99/45/102
f 112/27/119 110/29/120 104/29/121 103/27/122
f 110/29/123 109/32/124 102/32/125 104/29/126
f 111/40/127 112/27/128 103/27/129 101/40/130
f 109/9/131 111/7/132 101/7/133 102/9/134
f 103/27/122 104/29/121 108/29/97 106/27/96
f 104/29/126 102/32/125 107/32/94 108/29/94
f 101/40/130 103/27/129 106/27/83 105/40/82
f 102/9/134 101/7/133 105/7/48 107/9/47
f 50/9/16 55/7/18 111/7/132 109/9/131
f 55/40/135 30/27/135 112/27/128 111/40/127
f 28/29/136 50/32/136 109/32/124 110/29/123
f 30/27/29 28/29/58 110/29/120 112/27/119
f 124/3/137 121/2/138 114/2/139 115/3/139
f 123/34/140 122/37/141 116/37/142 113/34/142
f 122/37/143 124/39/144 115/39/145 116/37/146
f 121/35/147 123/34/147 113/34/148 114/35/149
f 115/3/139 114/2/139 119/2/86 118/3/85
f 113/34/142 116/37/142 120/37/77 117/34/76
f 116/37/146 115/39/145 118/39/71 120/37/70
f 114/35/149 113/34/148 117/34/39 119/35/38
f 51/35/150 36/34/150 123/34/147 121/35/147
f 34/37/151 53/39/151 124/39/144 122/37/143
f 36/34/53 34/37/60 122/37/141 123/34/140
f 53/3/21 51/2/23 121/2/138 124/3/137
f 136/21/152 133/19/153 126/19/154 127/21/155
f 135/51/156 134/52/157 128/49/158 125/42/159
f 134/52/160 136/50/161 127/50/162 128/49/163
f 133/41/164 135/51/165 125/42/166 126/41/167
f 127/21/155 126/19/154 131/19/92 130/21/91
f 125/42/159 128/49/158 132/49/80 129/42/79
f 128/49/163 127/50/162 130/50/68 132/49/67
f 126/41/167 125/42/166 129/42/42 131/41/41
f 59/41/168 42/42/168 135/51/165 133/41/164
f 40/49/169 60/50/169 136/50/161 134/52/160
f 42/42/62 40/49/51 134/52/157 135/51/156
f 60/21/26 59/19/28 133/19/153 136/21/152
o Конус
v 0.000000 2.092445 -0.475663
v 0.237832 2.092445 -0.411936
v 0.411936 2.092445 -0.237832
v 0.475663 2.092445 0.000000
v 0.411936 2.092445 0.237832
v 0.237832 2.092445 0.411936
v 0.000000 2.092445 0.475663
v -0.237832 2.092445 0.411936
v -0.411936 2.092445 0.237832
v -0.475663 2.092445 0.000000
v -0.411936 2.092445 -0.237832
v -0.237832 2.092445 -0.411936
v 0.000000 2.530496 0.000000
v 0.000000 2.092445 -0.500000
v 0.250000 2.092445 -0.433013
v 0.433013 2.092445 -0.250000
v 0.500000 2.092445 0.000000
v 0.433013 2.092445 0.250000
v 0.250000 2.092445 0.433013
v 0.000000 2.092445 0.500000
v -0.250000 2.092445 0.433013
v -0.433013 2.092445 0.250000
v -0.500000 2.092445 0.000000
v -0.433013 2.092445 -0.250000
v -0.250000 2.092445 -0.433013
v -0.000000 2.074219 -0.489648
v 0.244824 2.074219 -0.424048
v 0.424048 2.074219 -0.244824
v 0.489648 2.074219 0.000000
v 0.424048 2.074219 0.244824
v 0.244824 2.074219 0.424048
v -0.000000 2.074219 0.489648
v -0.244824 2.074219 0.424048
v -0.424048 2.074219 0.244824
v -0.489648 2.074219 0.000000
v -0.424048 2.074219 -0.244824
v -0.244824 2.074219 -0.424048
v -0.000000 2.074219 -0.465815
v 0.232908 2.074219 -0.403408
v 0.403408 2.074219 -0.232908
v 0.465815 2.074219 0.000000
v 0.403408 2.074219 0.232908
v 0.232908 2.074219 0.403408
v -0.000000 2.074219 0.465815
v -0.232908 2.074219 0.403408
v -0.403408 2.074219 0.232908
v -0.465815 2.074219 0.000000
v -0.403408 2.074219 -0.232908
v -0.232908 2.074219 -0.403408
vn -0.0000 0.7522 -0.6590
vn -0.0000 1.0000 -0.0000
vn 0.3295 0.7522 -0.5707
vn 0.5707 0.7522 -0.3295
vn 0.6590 0.7522 -0.0000
vn 0.5707 0.7522 0.3295
vn 0.3295 0.7522 0.5707
vn -0.0000 0.7522 0.6590
vn -0.3295 0.7522 0.5707
vn -0.5707 0.7522 0.3295
vn -0.6590 0.7522 -0.0000
vn -0.5707 0.7522 -0.3295
vn -0.3295 0.7522 -0.5707
vn -0.8563 0.4627 0.2295
vn 0.2269 -0.4810 0.8469
vn 0.8563 0.4627 0.2295
vn 0.6199 -0.4810 -0.6199
vn -0.6269 0.4627 0.6269
vn 0.8563 0.4627 -0.2295
vn -0.8469 -0.4810 0.2269
vn -0.2295 0.4627 0.8563
vn 0.6199 -0.4810 0.6199
vn 0.6269 0.4627 -0.6269
vn -0.2269 -0.4810 -0.8469
vn 0.2295 0.4627 -0.8563
vn -0.0000 -1.0000 -0.0000
vn -0.8469 -0.4810 -0.2269
vn 0.6269 0.4627 0.6269
vn -0.8563 0.4627 -0.2295
vn 0.8469 -0.4810 -0.2269
vn 0.2295 0.4627 0.8563
vn -0.2269 -0.4810 0.8469
vn -0.6269 0.4627 -0.6269
vn -0.6199 -0.4810 -0.6199
vn -0.2295 0.4627 -0.8563
vn 0.8469 -0.4810 0.2269
vn 0.2269 -0.4810 -0.8469
vn -0.6199 -0.4810 0.6199
vt 0.250000 0.490000
vt 0.250000 0.250000
vt 0.370000 0.457846
vt 0.457846 0.370000
vt 0.490000 0.250000
vt 0.457846 0.130000
vt 0.370000 0.042154
vt 0.250000 0.010000
vt 0.130000 0.042154
vt 0.042154 0.130000
vt 0.010000 0.250000
vt 0.042154 0.370000
vt 0.130000 0.457846
vt 0.978318 0.250000
vt 0.947729 0.364159
vt 0.552271 0.364159
vt 0.521682 0.250000
vt 0.864159 0.447729
vt 0.552270 0.135841
vt 0.750000 0.478318
vt 0.635841 0.052270
vt 0.750000 0.021682
vt 0.750000 0.490000
vt 0.870000 0.457846
vt 0.957846 0.370000
vt 0.990000 0.250000
vt 0.947729 0.135841
vt 0.957846 0.130000
vt 0.864159 0.052270
vt 0.870000 0.042154
vt 0.750000 0.010000
vt 0.630000 0.042154
vt 0.542154 0.130000
vt 0.510000 0.250000
vt 0.542154 0.370000
vt 0.635841 0.447729
vt 0.630000 0.457846
s 1
f 150/53/170 149/54/171 151/55/172
f 151/55/172 149/54/171 152/56/173
f 152/56/173 149/54/171 153/57/174
f 153/57/174 149/54/171 154/58/175
f 154/58/175 149/54/171 155/59/176
f 155/59/176 149/54/171 156/60/177
f 156/60/177 149/54/171 157/61/178
f 157/61/178 149/54/171 158/62/179
f 158/62/179 149/54/171 159/63/180
f 159/63/180 149/54/171 160/64/181
f 160/64/181 149/54/171 161/65/182
f 161/65/182 149/54/171 150/53/170
f 140/66/183 139/67/183 176/67/183 177/66/183
f 155/59/184 156/60/184 168/60/184 167/59/184
f 147/68/185 146/69/185 183/69/185 184/68/185
f 151/55/186 152/56/186 164/56/186 163/55/186
f 139/67/187 138/70/187 175/70/187 176/67/187
f 146/69/188 145/71/188 182/71/188 183/69/188
f 158/62/189 159/63/189 171/63/189 170/62/189
f 138/70/190 137/72/190 174/72/190 175/70/190
f 154/58/191 155/59/191 167/59/191 166/58/191
f 145/71/192 144/73/192 181/73/192 182/71/192
f 161/65/193 150/53/193 162/53/193 173/65/193
f 144/73/194 143/74/194 180/74/194 181/73/194
f 175/70/195 174/72/195 162/75/195 163/76/195
f 176/67/195 175/70/195 163/76/195 164/77/195
f 177/66/195 176/67/195 164/77/195 165/78/195
f 178/79/195 177/66/195 165/78/195 166/80/195
f 179/81/195 178/79/195 166/80/195 167/82/195
f 180/74/195 179/81/195 167/82/195 168/83/195
f 181/73/195 180/74/195 168/83/195 169/84/195
f 182/71/195 181/73/195 169/84/195 170/85/195
f 183/69/195 182/71/195 170/85/195 171/86/195
f 184/68/195 183/69/195 171/86/195 172/87/195
f 185/88/195 184/68/195 172/87/195 173/89/195
f 174/72/195 185/88/195 173/89/195 162/75/195
f 159/63/196 160/64/196 172/64/196 171/63/196
f 148/88/197 147/68/197 184/68/197 185/88/197
f 141/79/198 140/66/198 177/66/198 178/79/198
f 152/56/199 153/57/199 165/57/199 164/56/199
f 137/72/200 148/88/200 185/88/200 174/72/200
f 156/60/201 157/61/201 169/61/201 168/60/201
f 142/81/202 141/79/202 178/79/202 179/81/202
f 160/64/203 161/65/203 173/65/203 172/64/203
f 143/74/204 142/81/204 179/81/204 180/74/204
f 153/57/205 154/58/205 166/58/205 165/57/205
f 150/53/206 151/55/206 163/55/206 162/53/206
f 157/61/207 158/62/207 170/62/207 169/61/207
